<svg id="visual" viewBox="0 0 900 450" width="900" height="450" xmlns="http://www.w3.org/2000/svg" xmlns:xlink="http://www.w3.org/1999/xlink" version="1.1"><rect x="0" y="0" width="900" height="450" fill="#E8F6DA"></rect><path d="M0 106L13.7 114C27.3 122 54.7 138 82 138.7C109.3 139.3 136.7 124.7 163.8 122.8C191 121 218 132 245.2 140.5C272.3 149 299.7 155 327 158.3C354.3 161.7 381.7 162.3 409 166.7C436.3 171 463.7 179 491 172.3C518.3 165.7 545.7 144.3 573 146C600.3 147.7 627.7 172.3 654.8 171.8C682 171.3 709 145.7 736.2 144.3C763.3 143 790.7 166 818 169.7C845.3 173.3 872.7 157.7 886.3 149.8L900 142L900 451L886.3 451C872.7 451 845.3 451 818 451C790.7 451 763.3 451 736.2 451C709 451 682 451 654.8 451C627.7 451 600.3 451 573 451C545.7 451 518.3 451 491 451C463.7 451 436.3 451 409 451C381.7 451 354.3 451 327 451C299.7 451 272.3 451 245.2 451C218 451 191 451 163.8 451C136.7 451 109.3 451 82 451C54.7 451 27.3 451 13.7 451L0 451Z" fill="#c0e5c4"></path><path d="M0 151L13.7 151.5C27.3 152 54.7 153 82 157.8C109.3 162.7 136.7 171.3 163.8 181.5C191 191.7 218 203.3 245.2 202.8C272.3 202.3 299.7 189.7 327 190.2C354.3 190.7 381.7 204.3 409 210C436.3 215.7 463.7 213.3 491 206.3C518.3 199.3 545.7 187.7 573 187.3C600.3 187 627.7 198 654.8 198.5C682 199 709 189 736.2 178.2C763.3 167.3 790.7 155.7 818 162.2C845.3 168.7 872.7 193.3 886.3 205.7L900 218L900 451L886.3 451C872.7 451 845.3 451 818 451C790.7 451 763.3 451 736.2 451C709 451 682 451 654.8 451C627.7 451 600.3 451 573 451C545.7 451 518.3 451 491 451C463.7 451 436.3 451 409 451C381.7 451 354.3 451 327 451C299.7 451 272.3 451 245.2 451C218 451 191 451 163.8 451C136.7 451 109.3 451 82 451C54.7 451 27.3 451 13.7 451L0 451Z" fill="#b5dab3"></path><path d="M0 242L13.7 243.2C27.3 244.3 54.7 246.7 82 244C109.3 241.3 136.7 233.7 163.8 230.5C191 227.3 218 228.7 245.2 228.3C272.3 228 299.7 226 327 219.8C354.3 213.7 381.7 203.3 409 198.3C436.3 193.3 463.7 193.7 491 196.5C518.3 199.3 545.7 204.7 573 211.3C600.3 218 627.7 226 654.8 221.2C682 216.3 709 198.7 736.2 195.2C763.3 191.7 790.7 202.3 818 212.8C845.3 223.3 872.7 233.7 886.3 238.8L900 244L900 451L886.3 451C872.7 451 845.3 451 818 451C790.7 451 763.3 451 736.2 451C709 451 682 451 654.8 451C627.7 451 600.3 451 573 451C545.7 451 518.3 451 491 451C463.7 451 436.3 451 409 451C381.7 451 354.3 451 327 451C299.7 451 272.3 451 245.2 451C218 451 191 451 163.8 451C136.7 451 109.3 451 82 451C54.7 451 27.3 451 13.7 451L0 451Z" fill="#aacea2"></path><path d="M0 282L13.7 280C27.3 278 54.7 274 82 273.8C109.3 273.7 136.7 277.3 163.8 270.8C191 264.3 218 247.7 245.2 241.2C272.3 234.7 299.7 238.3 327 239.2C354.3 240 381.7 238 409 235.8C436.3 233.7 463.7 231.3 491 230.3C518.3 229.3 545.7 229.7 573 229.3C600.3 229 627.7 228 654.8 235.7C682 243.3 709 259.7 736.2 262.3C763.3 265 790.7 254 818 251.5C845.3 249 872.7 255 886.3 258L900 261L900 451L886.3 451C872.7 451 845.3 451 818 451C790.7 451 763.3 451 736.2 451C709 451 682 451 654.8 451C627.7 451 600.3 451 573 451C545.7 451 518.3 451 491 451C463.7 451 436.3 451 409 451C381.7 451 354.3 451 327 451C299.7 451 272.3 451 245.2 451C218 451 191 451 163.8 451C136.7 451 109.3 451 82 451C54.7 451 27.3 451 13.7 451L0 451Z" fill="#a0c391"></path><path d="M0 283L13.7 282C27.3 281 54.7 279 82 282.2C109.3 285.3 136.7 293.7 163.8 291.7C191 289.7 218 277.3 245.2 279.3C272.3 281.3 299.7 297.7 327 308.3C354.3 319 381.7 324 409 321.5C436.3 319 463.7 309 491 307.7C518.3 306.3 545.7 313.7 573 309.2C600.3 304.7 627.7 288.3 654.8 286.8C682 285.3 709 298.7 736.2 300.2C763.3 301.7 790.7 291.3 818 282.7C845.3 274 872.7 267 886.3 263.5L900 260L900 451L886.3 451C872.7 451 845.3 451 818 451C790.7 451 763.3 451 736.2 451C709 451 682 451 654.8 451C627.7 451 600.3 451 573 451C545.7 451 518.3 451 491 451C463.7 451 436.3 451 409 451C381.7 451 354.3 451 327 451C299.7 451 272.3 451 245.2 451C218 451 191 451 163.8 451C136.7 451 109.3 451 82 451C54.7 451 27.3 451 13.7 451L0 451Z" fill="#98b77f"></path><path d="M0 362L13.7 358.5C27.3 355 54.7 348 82 345.8C109.3 343.7 136.7 346.3 163.8 349.8C191 353.3 218 357.7 245.2 350.5C272.3 343.3 299.7 324.7 327 319.8C354.3 315 381.7 324 409 324.3C436.3 324.7 463.7 316.3 491 314.3C518.3 312.3 545.7 316.7 573 319.7C600.3 322.7 627.7 324.3 654.8 330.2C682 336 709 346 736.2 342.2C763.3 338.3 790.7 320.7 818 319.8C845.3 319 872.7 335 886.3 343L900 351L900 451L886.3 451C872.7 451 845.3 451 818 451C790.7 451 763.3 451 736.2 451C709 451 682 451 654.8 451C627.7 451 600.3 451 573 451C545.7 451 518.3 451 491 451C463.7 451 436.3 451 409 451C381.7 451 354.3 451 327 451C299.7 451 272.3 451 245.2 451C218 451 191 451 163.8 451C136.7 451 109.3 451 82 451C54.7 451 27.3 451 13.7 451L0 451Z" fill="#90ac6e"></path><path d="M0 389L13.7 385.2C27.3 381.3 54.7 373.7 82 373.7C109.3 373.7 136.7 381.3 163.8 382.3C191 383.3 218 377.7 245.2 377.2C272.3 376.7 299.7 381.3 327 382.5C354.3 383.7 381.7 381.3 409 381.8C436.3 382.3 463.7 385.7 491 385.3C518.3 385 545.7 381 573 377.3C600.3 373.7 627.7 370.3 654.8 373C682 375.7 709 384.3 736.2 381.8C763.3 379.3 790.7 365.7 818 360.3C845.3 355 872.7 358 886.3 359.5L900 361L900 451L886.3 451C872.7 451 845.3 451 818 451C790.7 451 763.3 451 736.2 451C709 451 682 451 654.8 451C627.7 451 600.3 451 573 451C545.7 451 518.3 451 491 451C463.7 451 436.3 451 409 451C381.7 451 354.3 451 327 451C299.7 451 272.3 451 245.2 451C218 451 191 451 163.8 451C136.7 451 109.3 451 82 451C54.7 451 27.3 451 13.7 451L0 451Z" fill="#89a05c"></path><path d="M0 387L13.7 392.3C27.3 397.7 54.7 408.3 82 413.2C109.3 418 136.7 417 163.8 416.5C191 416 218 416 245.2 412.5C272.3 409 299.7 402 327 399.7C354.3 397.3 381.7 399.7 409 403C436.3 406.3 463.7 410.7 491 412.3C518.3 414 545.7 413 573 409.3C600.3 405.7 627.7 399.3 654.8 400.2C682 401 709 409 736.2 407.7C763.3 406.3 790.7 395.7 818 391.8C845.3 388 872.7 391 886.3 392.5L900 394L900 451L886.3 451C872.7 451 845.3 451 818 451C790.7 451 763.3 451 736.2 451C709 451 682 451 654.8 451C627.7 451 600.3 451 573 451C545.7 451 518.3 451 491 451C463.7 451 436.3 451 409 451C381.7 451 354.3 451 327 451C299.7 451 272.3 451 245.2 451C218 451 191 451 163.8 451C136.7 451 109.3 451 82 451C54.7 451 27.3 451 13.7 451L0 451Z" fill="#82954b"></path></svg>