<?xml version="1.0" standalone="no"?>
<!DOCTYPE svg PUBLIC "-//W3C//DTD SVG 20010904//EN"
 "http://www.w3.org/TR/2001/REC-SVG-20010904/DTD/svg10.dtd">
<svg version="1.0" xmlns="http://www.w3.org/2000/svg"
 width="640.000000pt" height="645.000000pt" viewBox="0 0 640.000000 645.000000"
 preserveAspectRatio="xMidYMid meet">
<metadata>
Created by potrace 1.16, written by Peter Selinger 2001-2019
</metadata>
<g transform="translate(0.000000,645.000000) scale(0.100000,-0.100000)"
fill="#fff" stroke="none">
<path d="M2791 5629 c-496 -56 -885 -279 -1131 -648 -60 -90 -107 -178 -98
-186 15 -15 125 -7 168 12 l45 21 -28 11 c-16 6 -52 11 -80 12 l-52 1 45 10
c31 8 75 7 145 -1 120 -13 182 -14 189 -2 3 5 -13 21 -37 35 -51 30 -32 33 41
6 29 -11 72 -20 97 -20 24 0 76 -12 115 -26 39 -14 83 -24 98 -22 l27 4 -35
17 -35 16 30 1 c17 0 59 -14 93 -30 41 -19 80 -30 108 -30 57 0 49 14 -19 34
-28 9 -59 21 -67 27 -12 8 -9 9 10 3 14 -4 59 -6 101 -5 45 1 92 -3 117 -12
23 -8 42 -13 42 -10 0 3 -7 30 -16 61 -15 49 -15 69 -5 146 12 89 23 127 34
110 3 -5 13 -38 22 -74 9 -35 25 -80 35 -100 l19 -35 1 67 c0 37 7 93 15 125
8 31 15 72 15 90 0 61 19 33 55 -79 19 -62 48 -133 65 -156 32 -48 64 -127 75
-185 7 -35 9 -37 49 -38 22 -1 33 -3 24 -6 -35 -9 -11 -33 33 -33 27 0 93 -37
77 -43 -7 -2 5 -8 27 -12 46 -9 90 -29 101 -47 4 -6 -3 -4 -17 5 -13 9 -35 17
-48 17 -25 0 -25 0 10 -37 82 -89 85 -101 8 -41 -20 15 -40 28 -43 28 -4 0 5
-22 18 -48 27 -53 58 -79 106 -89 17 -3 33 -10 36 -14 9 -15 -49 -10 -80 6
-16 9 -31 13 -34 11 -9 -9 48 -56 68 -56 13 0 18 -4 15 -11 -4 -6 2 -20 14
-33 12 -12 30 -58 42 -106 18 -74 73 -196 172 -385 46 -88 199 -329 251 -396
52 -66 56 -75 56 -124 0 -38 -8 -67 -29 -106 -18 -34 -30 -77 -34 -117 -4 -35
-11 -72 -17 -82 -24 -44 -94 -14 -157 68 -48 63 -97 92 -127 75 -12 -7 -2 -22
48 -77 86 -92 95 -111 69 -135 -24 -22 -45 -30 -98 -33 -22 -1 -55 -13 -74
-25 -35 -24 -49 -27 -76 -17 -20 8 -55 75 -55 106 -1 34 -76 111 -245 252
-137 115 -153 125 -200 131 -81 10 -177 36 -226 61 -54 27 -134 112 -169 178
-25 48 -25 48 -68 42 -65 -9 -255 -140 -391 -271 -83 -80 -252 -314 -379 -526
l-22 -37 69 -89 c236 -306 597 -482 1071 -523 66 -6 543 -10 1128 -10 l1012 0
0 485 0 485 -240 0 -240 0 41 82 c53 105 102 256 130 400 18 90 23 147 23 283
0 331 -61 610 -189 865 -216 430 -597 701 -1105 785 -115 19 -423 27 -539 14z"/>
<path d="M1500 1165 l0 -485 1705 0 1705 0 0 485 0 485 -1705 0 -1705 0 0
-485z"/>
</g>
</svg>
